# xmcd
#
# Track frame offsets:
#	183
#	20050
#	37900
#	47320
#	77580
#	91323
#	111908
#	120893
#	145528
#	163558
#	184210
#	195370
#	204990
#	215698
#	242825
#	284853
#
# Disc length: 3919 seconds
#
# Revision: 1
# Processed by: cddbd v1.5.1PL0 Copyright (c) Steve Scherf et al.
# Submitted via: audiograbber 1.83.01
#
DISCID=d50f4d10
DTITLE=Soixante Etages - Beaux Soirs de Paris
DYEAR=1900
DGENRE=post-noise agit-rock
TTITLE0=Forsaken Piece
TTITLE1=A Little Courage
TTITLE2=Drunk
TTITLE3=Dance II
TTITLE4=Brute Force
TTITLE5=Beau Soir de Paris
TTITLE6=Troue le Temps
TTITLE7=Blonde
TTITLE8=The Deuce Beats a Nine
TTITLE9=You're my Different Friend Too
TTITLE10=I Was Late on Counting
TTITLE11=Take a Map of the World
TTITLE12=Allan Who Likes Bars
TTITLE13=Red Metropolitan in the Sherwood Forest
TTITLE14=Speed Limit for Model Citizen
TTITLE15=Ease (words Robt. Creeley)
EXTD=
EXTT0=
EXTT1=
EXTT2=
EXTT3=
EXTT4=
EXTT5=
EXTT6=
EXTT7=
EXTT8=
EXTT9=
EXTT10=
EXTT11=
EXTT12=
EXTT13=
EXTT14=
EXTT15=
PLAYORDER=
